#!OML:ASF I:\Actors\actors\Patient Classification 2\Patient 1\Session 1\actor1.ASF
:FULLY-SPECIFIED
:DEGREES
152
root -0.775096 18.8123 5.23845 5.9858 1.57227 -0.557479
lowerback 15.4412 -0.357928 -0.622853
upperback 2.84785 -0.496772 1.15204
thorax -5.61145 -0.223442 1.67001
lowerneck -3.6327 -0.848878 -0.908378
upperneck 4.18754 -1.19867 2.41568
head 1.9519 -0.552803 0.881631
rclavicle 1.09332e-014 -1.03368e-014
rhumerus 18.5143 45.0377 -74.2722
rradius 141.984
rwrist 7.87587
rhand -38.6705 -22.7661
rfingers 7.12502
rthumb -11.6859 -52.4201
lclavicle 1.09332e-014 -1.03368e-014
lhumerus 30.6151 -49.0196 68.6795
lradius 140.68
lwrist 16.8058
lhand -29.5331 -70.2894
lfingers 7.12502
lthumb -2.86659 -40.3289
rfemur 0.902135 3.03955 14.7774
rtibia 1.03368e-014
rfoot -19.1741 -16.8315
rtoes -4.00668
lfemur -13.4262 -5.23488 -12.1295
ltibia 22.3614
lfoot -16.4962 7.46853
ltoes -56.75
153
root -0.772331 18.8139 5.23428 6.04948 1.48717 -0.495556
lowerback 15.647 -0.343479 -0.611366
upperback 2.92163 -0.47633 1.15145
thorax -5.64603 -0.213728 1.66077
lowerneck -3.73597 -0.827232 -0.994859
upperneck 4.04232 -1.16288 2.43645
head 1.92362 -0.535996 0.903554
rclavicle 3.27995e-015 2.5842e-015
rhumerus 18.8586 46.9098 -74.2569
rradius 142.641
rwrist 9.74477
rhand -39.0659 -23.3584
rfingers 7.12502
rthumb -12.0672 -52.9905
lclavicle 3.27995e-015 2.5842e-015
lhumerus 31.7969 -48.9311 68.007
lradius 140.944
lwrist 17.1904
lhand -29.4592 -69.8311
lfingers 7.12502
lthumb -2.79516 -39.8696
rfemur 0.806206 3.11223 14.6906
rtibia -3.97569e-015
rfoot -19.1408 -16.8573
rtoes -4.08017
lfemur -13.5139 -5.18894 -12.2104
ltibia 22.3913
lfoot -16.4789 7.54437
ltoes -56.8596
154
root -0.774379 18.8157 5.21308 6.13649 1.34828 -0.515605
lowerback 16.0772 -0.287247 -0.649859
upperback 2.91467 -0.405075 1.20909
thorax -5.8893 -0.175895 1.73483
lowerneck -3.67522 -0.825052 -1.0518
upperneck 3.7314 -1.14958 2.39767
head 1.81164 -0.533141 0.900335
rclavicle 2.6339e-015 -6.95746e-015
rhumerus 19.8814 47.2779 -73.9379
rradius 142.982
rwrist 9.24203
rhand -38.8574 -21.922
rfingers 7.12502
rthumb -11.8662 -51.5658
lclavicle 2.6339e-015 -6.95746e-015
lhumerus 32.6674 -48.7789 67.5574
lradius 141.179
lwrist 17.8765
lhand -28.5972 -69.3345
lfingers 7.12502
lthumb -1.96265 -39.3638
rfemur 0.59088 3.24923 14.7019
rtibia -4.77083e-015
rfoot -19.1395 -16.8598
rtoes -3.53888
lfemur -13.7131 -5.15938 -12.1574
ltibia 22.443
lfoot -16.4456 7.66132
ltoes -56.8487
155
root -0.770155 18.8167 5.22052 6.23366 1.48519 -0.65797
lowerback 16.0998 -0.355644 -0.395688
upperback 2.94243 -0.447272 1.28118
thorax -5.87204 -0.200743 1.67582
lowerneck -3.45279 -0.81649 -1.03611
upperneck 3.39996 -1.13084 2.32095
head 1.66365 -0.528268 0.87287
rclavicle 2.98177e-016 -6.75868e-015
rhumerus 21.5316 46.863 -73.1081
rradius 143.007
rwrist 8.60901
rhand -38.7859 -22.6879
rfingers 7.12502
rthumb -11.7972 -52.3356
lclavicle 2.98177e-016 -6.75868e-015
lhumerus 33.3206 -48.8118 67.2092
lradius 141.352
lwrist 18.3255
lhand -28.0813 -69.1045
lfingers 7.12502
lthumb -1.46439 -39.1297
rfemur 0.534181 3.11808 14.8472
rtibia -1.59028e-015
rfoot -19.181 -16.8375
rtoes -3.48204
lfemur -13.8593 -5.13934 -11.9977
ltibia 22.5174
lfoot -16.4595 7.49735
ltoes -56.7581
156
root -0.766884 18.8173 5.22306 6.32461 1.55158 -0.666204
lowerback 16.189 -0.393135 -0.292405
upperback 2.97771 -0.477674 1.29913
thorax -5.88279 -0.21731 1.64339
lowerneck -3.30561 -0.800068 -0.884926
upperneck 3.11196 -1.10506 2.14075
head 1.54136 -0.519423 0.790227
rclavicle 4.77083e-015 -1.78906e-014
rhumerus 24.0768 46.4397 -71.2726
rradius 142.67
rwrist 10.3642
rhand -39.219 -28.795
rfingers 7.12502
rthumb -12.2148 -58.4183
lclavicle 4.77083e-015 -1.78906e-014
lhumerus 33.928 -48.8752 66.8106
lradius 141.499
lwrist 18.614
lhand -27.9992 -69.0815
lfingers 7.12502
lthumb -1.38509 -39.1063
rfemur 0.45229 3.04434 14.8465
rtibia 1.90833e-014
rfoot -19.1253 -16.8822
rtoes -3.81402
lfemur -14.0069 -5.13663 -11.9893
ltibia 22.6039
lfoot -16.4855 7.42954
ltoes -56.7421
157
root -0.764026 18.8173 5.22298 6.3921 1.56216 -0.643956
lowerback 16.3322 -0.407095 -0.230384
upperback 3.04004 -0.485238 1.29836
thorax -5.89447 -0.222231 1.61026
lowerneck -3.28332 -0.802075 -0.761029
upperneck 2.84688 -1.10379 1.98372
head 1.44994 -0.521758 0.719383
rclavicle 2.68359e-015 1.59028e-015
rhumerus 24.7154 47.8829 -70.654
rradius 143.142
rwrist 12.4012
rhand -39.0031 -30.6265
rfingers 7.12502
rthumb -12.0067 -60.2621
lclavicle 2.68359e-015 1.59028e-015
lhumerus 34.593 -48.8828 66.3375
lradius 141.615
lwrist 18.9277
lhand -27.9807 -69.0506
lfingers 7.12502
lthumb -1.36729 -39.0753
rfemur 0.372757 3.02542 14.8114
rtibia -2.38542e-015
rfoot -19.0591 -16.9211
rtoes -4.01293
lfemur -14.1292 -5.08233 -12.0183
ltibia 22.6916
lfoot -16.5001 7.37152
ltoes -56.7937
158
root -0.761627 18.8166 5.22245 6.45145 1.56362 -0.685281
lowerback 16.5295 -0.414545 -0.0983944
upperback 3.06224 -0.469532 1.32375
thorax -5.97932 -0.216276 1.56147
lowerneck -3.24551 -0.799158 -0.886943
upperneck 2.64632 -1.09377 2.06131
head 1.3812 -0.517799 0.764828
rclavicle 1.3418e-014 -2.06736e-014
rhumerus 25.3056 48.8809 -70.2815
rradius 143.461
rwrist 12.9917
rhand -38.8508 -30.3773
rfingers 7.12502
rthumb -11.8598 -60.0214
lclavicle 1.3418e-014 -2.06736e-014
lhumerus 35.1473 -48.9028 65.9849
lradius 141.694
lwrist 19.1612
lhand -27.8686 -68.9896
lfingers 7.12502
lthumb -1.259 -39.0136
rfemur 0.30176 3.02351 14.8484
rtibia -8.74653e-015
rfoot -19.0595 -16.9163
rtoes -3.91095
lfemur -14.239 -5.03525 -11.9761
ltibia 22.7645
lfoot -16.4897 7.34609
ltoes -56.8522
159
root -0.758939 18.8157 5.22158 6.50551 1.56574 -0.708557
lowerback 16.7806 -0.419038 0.000148474
upperback 3.04299 -0.454118 1.35177
thorax -6.13717 -0.209378 1.53568
lowerneck -3.07869 -0.783481 -0.941481
upperneck 2.40194 -1.0681 2.08588
head 1.27491 -0.507082 0.781883
rclavicle 1.98785e-015 -5.36719e-015
rhumerus 25.5998 50.0826 -70.1078
rradius 143.732
rwrist 13.817
rhand -38.8913 -29.8704
rfingers 7.12502
rthumb -11.8988 -59.5123
lclavicle 1.98785e-015 -5.36719e-015
lhumerus 35.5413 -48.9504 65.7509
lradius 141.734
lwrist 19.215
lhand -27.7601 -68.962
lfingers 7.12502
lthumb -1.15426 -38.9853
rfemur 0.237772 3.01928 14.8646
rtibia 3.18055e-015
rfoot -19.0772 -16.9227
rtoes -3.96503
lfemur -14.339 -5.0467 -11.9575
ltibia 22.8308
lfoot -16.4779 7.41367
ltoes -56.9064
160
root -0.757022 18.8159 5.22095 6.55504 1.54398 -0.707736
lowerback 17.0021 -0.396099 0.0102453
upperback 3.03986 -0.417547 1.3904
thorax -6.26149 -0.190745 1.56618
lowerneck -2.87157 -0.80914 -0.84717
upperneck 2.13059 -1.09845 1.92879
head 1.15145 -0.526138 0.716054
rclavicle -8.15017e-015 1.17283e-014
rhumerus 26.6057 49.8777 -69.6239
rradius 143.657
rwrist 13.0739
rhand -38.935 -29.3672
rfingers 7.12502
rthumb -11.941 -59.0067
lclavicle -8.15017e-015 1.17283e-014
lhumerus 35.9131 -49.0727 65.5243
lradius 141.743
lwrist 19.0813
lhand -27.8918 -68.9465
lfingers 7.12502
lthumb -1.28142 -38.9706
rfemur 0.172844 3.03655 14.8532
rtibia 8.74653e-015
rfoot -19.0484 -16.9637
rtoes -4.18399
lfemur -14.418 -5.05185 -11.9623
ltibia 22.8872
lfoot -16.496 7.45278
ltoes -56.8632
161
root -0.756183 18.8174 5.2208 6.61633 1.50534 -0.693603
lowerback 17.2126 -0.355384 -0.00654401
upperback 3.03776 -0.361638 1.44113
thorax -6.37894 -0.162128 1.6203
lowerneck -2.81192 -0.858503 -0.96646
upperneck 1.98839 -1.15819 1.94118
head 1.09852 -0.557624 0.738778
rclavicle -1.10325e-014 -7.95139e-016
rhumerus 28.7068 47.6212 -68.73
rradius 143.019
rwrist 10.1072
rhand -39.0349 -28.9294
rfingers 7.12502
rthumb -12.0373 -58.5633
lclavicle -1.10325e-014 -7.95139e-016
lhumerus 36.2046 -49.2204 65.3822
lradius 141.754
lwrist 18.9149
lhand -28.0144 -68.9014
lfingers 7.12502
lthumb -1.3998 -38.9262
rfemur 0.0970625 3.06783 14.8251
rtibia -1.59028e-014
rfoot -18.9904 -17.009
rtoes -4.27693
lfemur -14.5008 -5.01258 -11.9758
ltibia 22.9336
lfoot -16.5068 7.40942
ltoes -56.7744
162
root -0.753868 18.8185 5.22063 6.68466 1.48267 -0.648733
lowerback 17.4336 -0.333933 0.0273726
upperback 3.03936 -0.324428 1.45324
thorax -6.49824 -0.143962 1.60844
lowerneck -2.84034 -0.895815 -1.06487
upperneck 1.86431 -1.20226 1.94053
head 1.06601 -0.580713 0.754146
rclavicle 4.17448e-015 7.35503e-015
rhumerus 29.0201 47.704 -68.7293
rradius 143.078
rwrist 9.30505
rhand -39.0008 -26.9931
rfingers 7.12502
rthumb -12.0045 -56.6288
lclavicle 4.17448e-015 7.35503e-015
lhumerus 36.4134 -49.2426 65.3176
lradius 141.759
lwrist 18.9129
lhand -27.8909 -68.8494
lfingers 7.12502
lthumb -1.28059 -38.8735
rfemur 0.0172068 3.07846 14.7571
rtibia 1.82882e-014
rfoot -18.9531 -17.0347
rtoes -4.3219
lfemur -14.5984 -4.91544 -12.0348
ltibia 22.9717
lfoot -16.4558 7.35347
ltoes -56.8067
163
root -0.750601 18.8178 5.22038 6.75239 1.51335 -0.63724
lowerback 17.6279 -0.34357 0.128094
upperback 3.05126 -0.316802 1.45082
thorax -6.59153 -0.1419 1.54916
lowerneck -2.84188 -0.940567 -0.909611
upperneck 1.70761 -1.26023 1.70977
head 1.0141 -0.61231 0.655161
rclavicle 7.85199e-015 -1.51076e-014
rhumerus 28.7287 47.8446 -69.3738
rradius 143.316
rwrist 7.38077
rhand -38.331 -22.5078
rfingers 7.12502
rthumb -11.3585 -52.1802
lclavicle 7.85199e-015 -1.51076e-014
lhumerus 36.5563 -49.1781 65.2786
lradius 141.765
lwrist 19.0154
lhand -27.7154 -68.6622
lfingers 7.12502
lthumb -1.11104 -38.6854
rfemur -0.0593551 3.04032 14.7325
rtibia 9.54166e-015
rfoot -18.9467 -17.0534
rtoes -4.40368
lfemur -14.7004 -4.84362 -12.0584
ltibia 22.9949
lfoot -16.3993 7.32057
ltoes -56.9382
164
root -0.747847 18.8173 5.22086 6.82989 1.54922 -0.638119
lowerback 17.7737 -0.365277 0.208565
upperback 3.08084 -0.327988 1.46388
thorax -6.63882 -0.14872 1.52145
lowerneck -2.97546 -0.980363 -0.816473
upperneck 1.67823 -1.31241 1.56114
head 1.02599 -0.63934 0.592246
rclavicle 4.07509e-015 -5.96354e-015
rhumerus 28.7087 49.1243 -69.2888
rradius 143.431
rwrist 9.00141
rhand -38.6985 -22.9306
rfingers 7.12502
rthumb -11.713 -52.5832
lclavicle 4.07509e-015 -5.96354e-015
lhumerus 36.6445 -49.0967 65.2333
lradius 141.779
lwrist 19.0319
lhand -27.6809 -68.3906
lfingers 7.12502
lthumb -1.07771 -38.4136
rfemur -0.136153 2.99739 14.7247
rtibia 7.95139e-016
rfoot -18.9456 -17.0711
rtoes -4.38219
lfemur -14.8016 -4.7947 -12.0632
ltibia 23.01
lfoot -16.3626 7.29096
ltoes -57.0311
165
root -0.745065 18.8183 5.22195 6.90024 1.5409 -0.575143
lowerback 17.9221 -0.373825 0.226427
upperback 3.10515 -0.334622 1.46096
thorax -6.69294 -0.152126 1.51134
lowerneck -3.1414 -1.01715 -0.853682
upperneck 1.69032 -1.35839 1.52279
head 1.05874 -0.662419 0.585294
rclavicle -6.95746e-016 -2.0276e-014
rhumerus 29.8014 51.4766 -67.581
rradius 143.283
rwrist 15.5179
rhand -39.7455 -32.4518
rfingers 7.12502
rthumb -12.7225 -62.0442
lclavicle -6.95746e-016 -2.0276e-014
lhumerus 36.6877 -49.0392 65.2127
lradius 141.771
lwrist 18.949
lhand -27.7215 -68.2014
lfingers 7.12502
lthumb -1.1169 -38.2246
rfemur -0.199758 2.99033 14.638
rtibia -1.27222e-014
rfoot -18.9758 -17.0521
rtoes -4.0999
lfemur -14.8872 -4.70878 -12.1465
ltibia 23.0312
lfoot -16.3401 7.25142
ltoes -57.0988
166
root -0.741917 18.8192 5.22362 6.96414 1.54224 -0.514509
lowerback 18.0953 -0.384135 0.269596
upperback 3.09363 -0.338889 1.44525
thorax -6.79932 -0.15474 1.47331
lowerneck -3.13333 -1.07063 -0.869643
upperneck 1.606 -1.42624 1.43987
head 1.03097 -0.697876 0.561079
rclavicle 2.98177e-015 7.15625e-015
rhumerus 29.2515 49.6667 -69.3097
rradius 143.436
rwrist 9.09361
rhand -38.8502 -23.0182
rfingers 7.12502
rthumb -11.8592 -52.6623
lclavicle 2.98177e-015 7.15625e-015
lhumerus 36.6573 -49.0123 65.2223
lradius 141.774
lwrist 18.8658
lhand -27.7061 -68.0338
lfingers 7.12502
lthumb -1.10209 -38.0569
rfemur -0.260451 2.97465 14.5559
rtibia 5.56597e-015
rfoot -19.007 -17.0337
rtoes -3.93769
lfemur -14.9617 -4.69767 -12.2206
ltibia 23.0464
lfoot -16.3608 7.23059
ltoes -57.0911
